<svg width="100" height="100" viewBox="0 0 100 100" fill="none" xmlns="http://www.w3.org/2000/svg">
  <rect width="100" height="100" rx="20" fill="#4F46E5"/>
  <path d="M50 25C36.19 25 25 36.19 25 50C25 63.81 36.19 75 50 75C63.81 75 75 63.81 75 50C75 36.19 63.81 25 50 25ZM50 70C38.95 70 30 61.05 30 50C30 38.95 38.95 30 50 30C61.05 30 70 38.95 70 50C70 61.05 61.05 70 50 70Z" fill="#F97316"/>
  <path d="M50 35C42.27 35 36 41.27 36 49C36 56.73 42.27 63 50 63C57.73 63 64 56.73 64 49C64 41.27 57.73 35 50 35ZM50 58C45.03 58 41 53.97 41 49C41 44.03 45.03 40 50 40C54.97 40 59 44.03 59 49C59 53.97 54.97 58 50 58Z" fill="white"/>
</svg>